<?xml version="1.0" encoding="UTF-8"?>
<svg width="600" height="600" viewBox="0 0 600 600" xmlns="http://www.w3.org/2000/svg" xmlns:xlink="http://www.w3.org/1999/xlink">
  <defs>
    <!-- Pearlescent gradient for petals -->
    <linearGradient id="petal-gradient" x1="0%" y1="0%" x2="100%" y2="100%">
      <stop offset="0%" stop-color="#FFF5F5" /> <!-- Pearl white -->
      <stop offset="30%" stop-color="#F9E6E0" /> <!-- Light peach -->
      <stop offset="60%" stop-color="#F0DAD6" /> <!-- Blush pink -->
      <stop offset="85%" stop-color="#F0E6E0" /> <!-- Champagne beige -->
      <stop offset="100%" stop-color="#FFFDFA" /> <!-- Off-white -->
    </linearGradient>
    
    <!-- Pearl center gradient -->
    <linearGradient id="pearl-gradient" x1="0%" y1="0%" x2="100%" y2="100%">
      <stop offset="0%" stop-color="#FFF5F0" /> <!-- Pearl white -->
      <stop offset="40%" stop-color="#F5E9E4" /> <!-- Light champagne -->
      <stop offset="60%" stop-color="#F2E2DA" /> <!-- Soft peach -->
      <stop offset="100%" stop-color="#F0E0D8" /> <!-- Light beige -->
    </linearGradient>
    
    <!-- Small pearl gradient -->
    <radialGradient id="small-pearl" cx="50%" cy="50%" r="50%" fx="25%" fy="25%">
      <stop offset="0%" stop-color="#FFFFFF" /> <!-- Bright white highlight -->
      <stop offset="50%" stop-color="#FFF0EB" /> <!-- Pearl body -->
      <stop offset="100%" stop-color="#F0E5E0" /> <!-- Pearl shadow -->
    </radialGradient>
    
    <!-- Pearlescent shine filter -->
    <filter id="pearl-shine" x="-50%" y="-50%" width="200%" height="200%">
      <feGaussianBlur in="SourceAlpha" stdDeviation="2" result="blur" />
      <feOffset in="blur" dx="1" dy="1" result="offsetBlur" />
      <feSpecularLighting in="blur" surfaceScale="5" specularConstant="0.75" 
                         specularExponent="20" lighting-color="#FFFFFF" result="specOut">
        <fePointLight x="300" y="150" z="200" />
      </feSpecularLighting>
      <feComposite in="specOut" in2="SourceAlpha" operator="in" result="specOut" />
      <feComposite in="SourceGraphic" in2="specOut" operator="arithmetic" k1="0" k2="1" k3="1" k4="0" />
    </filter>
    
    <!-- Subtle iridescent overlay -->
    <filter id="iridescent-overlay" x="-50%" y="-50%" width="200%" height="200%">
      <feTurbulence type="fractalNoise" baseFrequency="0.01" numOctaves="2" result="noise" />
      <feColorMatrix in="noise" type="matrix" 
                   values="0 0 0 0 0.9
                           0 0 0 0 0.95
                           0 0 0 0 1
                           0 0 0 0.05 0" result="iridescence" />
      <feComposite in="SourceGraphic" in2="iridescence" operator="arithmetic" k1="0" k2="1" k3="1" k4="0" />
    </filter>
  </defs>
  
  <!-- Main flower -->
  <g transform="translate(300, 300)">
    <!-- Petals Layer 1 (back layer) -->
    <g filter="url(#iridescent-overlay)">
      <!-- Petal 1 -->
      <path d="M0,0 Q-10,-30 -30,-60 Q-35,-80 -15,-110 Q10,-140 35,-110 Q60,-80 40,-50 Q20,-20 0,0" 
            fill="url(#petal-gradient)" 
            stroke="#FFF0EB" 
            stroke-width="1"
            filter="url(#pearl-shine)"
            transform="rotate(0)" />
      
      <!-- Petal 2 -->
      <path d="M0,0 Q-10,-30 -30,-60 Q-35,-80 -15,-110 Q10,-140 35,-110 Q60,-80 40,-50 Q20,-20 0,0" 
            fill="url(#petal-gradient)" 
            stroke="#FFF0EB" 
            stroke-width="1"
            filter="url(#pearl-shine)"
            transform="rotate(36)" />
      
      <!-- Petal 3 -->
      <path d="M0,0 Q-10,-30 -30,-60 Q-35,-80 -15,-110 Q10,-140 35,-110 Q60,-80 40,-50 Q20,-20 0,0" 
            fill="url(#petal-gradient)" 
            stroke="#FFF0EB" 
            stroke-width="1"
            filter="url(#pearl-shine)"
            transform="rotate(72)" />
      
      <!-- Petal 4 -->
      <path d="M0,0 Q-10,-30 -30,-60 Q-35,-80 -15,-110 Q10,-140 35,-110 Q60,-80 40,-50 Q20,-20 0,0" 
            fill="url(#petal-gradient)" 
            stroke="#FFF0EB" 
            stroke-width="1"
            filter="url(#pearl-shine)"
            transform="rotate(108)" />
      
      <!-- Petal 5 -->
      <path d="M0,0 Q-10,-30 -30,-60 Q-35,-80 -15,-110 Q10,-140 35,-110 Q60,-80 40,-50 Q20,-20 0,0" 
            fill="url(#petal-gradient)" 
            stroke="#FFF0EB" 
            stroke-width="1"
            filter="url(#pearl-shine)"
            transform="rotate(144)" />
      
      <!-- Petal 6 -->
      <path d="M0,0 Q-10,-30 -30,-60 Q-35,-80 -15,-110 Q10,-140 35,-110 Q60,-80 40,-50 Q20,-20 0,0" 
            fill="url(#petal-gradient)" 
            stroke="#FFF0EB" 
            stroke-width="1"
            filter="url(#pearl-shine)"
            transform="rotate(180)" />
      
      <!-- Petal 7 -->
      <path d="M0,0 Q-10,-30 -30,-60 Q-35,-80 -15,-110 Q10,-140 35,-110 Q60,-80 40,-50 Q20,-20 0,0" 
            fill="url(#petal-gradient)" 
            stroke="#FFF0EB" 
            stroke-width="1"
            filter="url(#pearl-shine)"
            transform="rotate(216)" />
      
      <!-- Petal 8 -->
      <path d="M0,0 Q-10,-30 -30,-60 Q-35,-80 -15,-110 Q10,-140 35,-110 Q60,-80 40,-50 Q20,-20 0,0" 
            fill="url(#petal-gradient)" 
            stroke="#FFF0EB" 
            stroke-width="1"
            filter="url(#pearl-shine)"
            transform="rotate(252)" />
      
      <!-- Petal 9 -->
      <path d="M0,0 Q-10,-30 -30,-60 Q-35,-80 -15,-110 Q10,-140 35,-110 Q60,-80 40,-50 Q20,-20 0,0" 
            fill="url(#petal-gradient)" 
            stroke="#FFF0EB" 
            stroke-width="1"
            filter="url(#pearl-shine)"
            transform="rotate(288)" />
      
      <!-- Petal 10 -->
      <path d="M0,0 Q-10,-30 -30,-60 Q-35,-80 -15,-110 Q10,-140 35,-110 Q60,-80 40,-50 Q20,-20 0,0" 
            fill="url(#petal-gradient)" 
            stroke="#FFF0EB" 
            stroke-width="1"
            filter="url(#pearl-shine)"
            transform="rotate(324)" />
    </g>
    
    <!-- Flower center -->
    <g>
      <!-- Pearl center -->
      <circle cx="0" cy="0" r="30" 
              fill="url(#pearl-gradient)" 
              stroke="#F9E6E0" 
              stroke-width="1"
              filter="url(#pearl-shine)" />
      
      <!-- Pearl decorations around center -->
      <g>
        <!-- 12 pearls around the center -->
        <circle cx="0" cy="-30" r="5" fill="url(#small-pearl)" filter="url(#pearl-shine)" />
        <circle cx="15" cy="-26" r="5" fill="url(#small-pearl)" filter="url(#pearl-shine)" />
        <circle cx="26" cy="-15" r="5" fill="url(#small-pearl)" filter="url(#pearl-shine)" />
        <circle cx="30" cy="0" r="5" fill="url(#small-pearl)" filter="url(#pearl-shine)" />
        <circle cx="26" cy="15" r="5" fill="url(#small-pearl)" filter="url(#pearl-shine)" />
        <circle cx="15" cy="26" r="5" fill="url(#small-pearl)" filter="url(#pearl-shine)" />
        <circle cx="0" cy="30" r="5" fill="url(#small-pearl)" filter="url(#pearl-shine)" />
        <circle cx="-15" cy="26" r="5" fill="url(#small-pearl)" filter="url(#pearl-shine)" />
        <circle cx="-26" cy="15" r="5" fill="url(#small-pearl)" filter="url(#pearl-shine)" />
        <circle cx="-30" cy="0" r="5" fill="url(#small-pearl)" filter="url(#pearl-shine)" />
        <circle cx="-26" cy="-15" r="5" fill="url(#small-pearl)" filter="url(#pearl-shine)" />
        <circle cx="-15" cy="-26" r="5" fill="url(#small-pearl)" filter="url(#pearl-shine)" />
      </g>
      
      <!-- Center shimmer -->
      <circle cx="-5" cy="-5" r="8" fill="#FFFFFF" opacity="0.3" />
      <circle cx="7" cy="7" r="5" fill="#FFFFFF" opacity="0.2" />
    </g>
  </g>
  
  <!-- Subtle iridescent highlights -->
  <g opacity="0.15">
    <circle cx="300" cy="170" r="1" fill="#FFFFFF" />
    <circle cx="330" cy="200" r="0.8" fill="#FFFFFF" />
    <circle cx="360" cy="180" r="0.6" fill="#FFFFFF" />
    <circle cx="390" cy="210" r="0.7" fill="#FFFFFF" />
    <circle cx="420" cy="190" r="0.5" fill="#FFFFFF" />
  </g>
</svg>
