<?xml version="1.0" encoding="UTF-8"?>
<svg width="600" height="600" viewBox="0 0 600 600" xmlns="http://www.w3.org/2000/svg" xmlns:xlink="http://www.w3.org/1999/xlink">
  <defs>
    <linearGradient id="gold-gradient" x1="0%" y1="0%" x2="100%" y2="100%">
      <stop offset="0%" stop-color="#FFD700" /> <!-- Gold -->
      <stop offset="25%" stop-color="#FFDF00" /> <!-- Golden yellow -->
      <stop offset="50%" stop-color="#F0C420" /> <!-- Goldenrod -->
      <stop offset="75%" stop-color="#DAA520" /> <!-- Golden amber -->
      <stop offset="100%" stop-color="#B8860B" /> <!-- Dark goldenrod -->
    </linearGradient>
    
    <filter id="blur-filter" x="-50%" y="-50%" width="200%" height="200%">
      <feGaussianBlur in="SourceGraphic" stdDeviation="2" />
    </filter>
    
    <filter id="shimmer" x="-50%" y="-50%" width="200%" height="200%">
      <feTurbulence type="fractalNoise" baseFrequency="0.01" numOctaves="3" result="noise" />
      <feDisplacementMap in="SourceGraphic" in2="noise" scale="5" xChannelSelector="R" yChannelSelector="G" />
      <feGaussianBlur stdDeviation="0.5" />
    </filter>
    
    <linearGradient id="luxury-gold" x1="0%" y1="0%" x2="100%" y2="100%">
      <stop offset="0%" stop-color="#FFFFCC" /> <!-- Very light gold -->
      <stop offset="20%" stop-color="#FFD700" /> <!-- Gold -->
      <stop offset="40%" stop-color="#FFC125" /> <!-- Golden yellow -->
      <stop offset="60%" stop-color="#E6BE8A" /> <!-- Pale gold -->
      <stop offset="80%" stop-color="#DAA520" /> <!-- Goldenrod -->
      <stop offset="100%" stop-color="#B8860B" /> <!-- Dark goldenrod -->
    </linearGradient>
    
    <filter id="gold-glow" x="-50%" y="-50%" width="200%" height="200%">
      <feGaussianBlur stdDeviation="5" result="blur" />
      <feFlood flood-color="#FFD700" flood-opacity="0.7" result="color" />
      <feComposite in="color" in2="blur" operator="in" result="glow" />
      <feComposite in="SourceGraphic" in2="glow" operator="over" />
    </filter>
  </defs>
  
  <!-- Main flower petals -->
  <g transform="translate(300, 300)">
    <!-- Petal 1 -->
    <g transform="rotate(0)">
      <path d="M0,0 C40,-70 80,-80 100,-30 C120,20 60,80 0,0" fill="url(#gold-gradient)" stroke="#E6BE8A" stroke-width="1" opacity="0.9" filter="url(#shimmer)" />
    </g>
    
    <!-- Petal 2 -->
    <g transform="rotate(72)">
      <path d="M0,0 C40,-70 80,-80 100,-30 C120,20 60,80 0,0" fill="url(#gold-gradient)" stroke="#E6BE8A" stroke-width="1" opacity="0.95" filter="url(#shimmer)" />
    </g>
    
    <!-- Petal 3 -->
    <g transform="rotate(144)">
      <path d="M0,0 C40,-70 80,-80 100,-30 C120,20 60,80 0,0" fill="url(#gold-gradient)" stroke="#E6BE8A" stroke-width="1" opacity="0.9" filter="url(#shimmer)" />
    </g>
    
    <!-- Petal 4 -->
    <g transform="rotate(216)">
      <path d="M0,0 C40,-70 80,-80 100,-30 C120,20 60,80 0,0" fill="url(#gold-gradient)" stroke="#E6BE8A" stroke-width="1" opacity="0.95" filter="url(#shimmer)" />
    </g>
    
    <!-- Petal 5 -->
    <g transform="rotate(288)">
      <path d="M0,0 C40,-70 80,-80 100,-30 C120,20 60,80 0,0" fill="url(#gold-gradient)" stroke="#E6BE8A" stroke-width="1" opacity="0.9" filter="url(#shimmer)" />
    </g>
    
    <!-- Center circle with luxury gold effect -->
    <circle cx="0" cy="0" r="35" fill="url(#luxury-gold)" stroke="#E6BE8A" stroke-width="1" filter="url(#gold-glow)" />
    
    <!-- Small highlight dots -->
    <circle cx="-15" cy="-15" r="5" fill="#FFFFCC" opacity="0.8" />
    <circle cx="15" cy="15" r="3" fill="#FFFFCC" opacity="0.9" />
  </g>
  
  <!-- Small decorative gold dust -->
  <g filter="url(#gold-glow)" opacity="0.6">
    <circle cx="350" cy="170" r="2" fill="#FFD700" />
    <circle cx="380" cy="200" r="1.5" fill="#FFD700" />
    <circle cx="410" cy="180" r="1" fill="#FFD700" />
    <circle cx="440" cy="210" r="2" fill="#FFD700" />
    <circle cx="470" cy="190" r="1" fill="#FFD700" />
  </g>
</svg>
